#!OML:ASF X:\für Bonn\!DataBase\2005_08_11_Bastian_Final\c3d\Bastian.ASF
:FULLY-SPECIFIED
:DEGREES
110
root -1.86098 18.6679 -7.9234 182.445 -56.6565 -191.56
lowerback 9.69266 -5.77696 -3.39173
upperback -0.943313 -8.12371 -0.176555
thorax -5.95248 -3.89312 2.85961
lowerneck 2.88594 -16.2454 -9.40894
upperneck -7.72815 -21.7724 14.3292
head -0.135507 -11.1375 5.42023
rclavicle 1.06002e-013 -1.43125e-014
rhumerus -122.934 -150.526 151.194
rradius 57.2022
rwrist -128.536
rhand 13.7486 16.2722
rfingers 7.12502
rthumb 38.6725 -9.34088
lclavicle 1.06002e-013 -1.43125e-014
lhumerus 103.279 -1.62293 57.4488
lradius 45.8527
lwrist 202.77
lhand -8.84222 45.2612
lfingers 7.12502
lthumb 17.0983 74.5288
rfemur -4.02016 0.789699 6.23423
rtibia 32.4123
rfoot 1.15115 -12.1806
rtoes -10.6596
lfemur 8.99739 -1.3492 -13.7534
ltibia 22.1773
lfoot 17.3649 -8.68148
ltoes -39.9832
111
root -1.83298 18.7226 -7.97511 182.566 -56.5634 -191.667
lowerback 9.72807 -5.78267 -3.41424
upperback -0.946879 -8.13117 -0.109917
thorax -5.96274 -3.89445 2.94571
lowerneck 2.64554 -16.1865 -9.41784
upperneck -7.40397 -21.6914 14.0801
head -0.0405059 -11.0745 5.32
rclavicle 1.79652e-013 -7.95139e-016
rhumerus -120.946 -150.627 151.131
rradius 53.967
rwrist -129.594
rhand 7.77929 15.7447
rfingers 7.12502
rthumb 33.0172 -11.2518
lclavicle 1.79652e-013 -7.95139e-016
lhumerus 104.348 -2.24598 58.4235
lradius 42.4425
lwrist 203.997
lhand -9.85468 41.1695
lfingers 7.12502
lthumb 16.1236 70.5188
rfemur -3.69468 2.35211 6.6742
rtibia 31.8239
rfoot 1.49909 -13.6515
rtoes -9.87511
lfemur 8.66387 -1.14903 -13.6903
ltibia 22.4964
lfoot 18.018 -8.17593
ltoes -40.6548
112
root -1.80467 18.7717 -8.02674 182.713 -56.4191 -191.775
lowerback 9.71053 -5.76499 -3.44364
upperback -0.942556 -8.10583 -0.040985
thorax -5.93572 -3.88092 3.02676
lowerneck 2.33154 -16.1372 -9.44989
upperneck -7.08587 -21.6178 13.8317
head 0.0678166 -11.0135 5.21595
rclavicle 1.37658e-014 1.11319e-014
rhumerus -119.183 -150.682 151.184
rradius 51.1655
rwrist -130.931
rhand 2.19066 15.4663
rfingers 7.12502
rthumb 27.6869 -12.5158
lclavicle 1.37658e-014 1.11319e-014
lhumerus 105.273 -3.02805 59.7445
lradius 39.2155
lwrist 205.535
lhand -10.9245 37.188
lfingers 7.12502
lthumb 15.0932 66.6178
rfemur -3.45887 3.85178 7.08895
rtibia 31.3367
rfoot 1.74646 -15.0395
rtoes -9.24315
lfemur 8.32981 -0.97767 -13.66
ltibia 22.7861
lfoot 18.6133 -7.55467
ltoes -41.0727
113
root -1.77595 18.8156 -8.07843 182.903 -56.2937 -191.923
lowerback 9.67918 -5.75484 -3.51183
upperback -0.933538 -8.09466 0.0254269
thorax -5.89017 -3.87396 3.12589
lowerneck 2.05953 -16.066 -9.46883
upperneck -6.8262 -21.5134 13.6139
head 0.15155 -10.9414 5.12844
rclavicle 6.83819e-014 1.43125e-014
rhumerus -117.734 -150.769 151.395
rradius 48.8203
rwrist -132.267
rhand -3.30079 15.4276
rfingers 7.12502
rthumb 22.4253 -13.2906
lclavicle 6.83819e-014 1.43125e-014
lhumerus 106.098 -3.93391 61.3351
lradius 36.0677
lwrist 207.104
lhand -11.4833 33.6941
lfingers 7.12502
lthumb 14.5549 63.1634
rfemur -3.27408 5.282 7.47074
rtibia 30.9664
rfoot 1.8207 -16.3971
rtoes -8.45198
lfemur 8.01458 -0.708917 -13.6189
ltibia 23.0071
lfoot 19.2138 -7.10608
ltoes -41.3506
114
root -1.7473 18.8525 -8.13062 183.166 -56.1477 -192.175
lowerback 9.64533 -5.73727 -3.66672
upperback -0.918805 -8.08452 0.0780918
thorax -5.82743 -3.8658 3.25694
lowerneck 1.85213 -15.9925 -9.48685
upperneck -6.62034 -21.4068 13.4228
head 0.212386 -10.8723 5.05732
rclavicle 4.7758e-014 2.70347e-014
rhumerus -116.599 -150.862 151.793
rradius 46.9117
rwrist -133.75
rhand -8.37935 15.6285
rfingers 7.12502
rthumb 17.5438 -13.5999
lclavicle 4.7758e-014 2.70347e-014
lhumerus 106.78 -4.95688 63.1876
lradius 33.1259
lwrist 208.353
lhand -12.3306 30.8662
lfingers 7.12502
lthumb 13.7384 60.3927
rfemur -3.1434 6.55963 7.75353
rtibia 30.7102
rfoot 1.8818 -17.5783
rtoes -7.8399
lfemur 7.75648 -0.432956 -13.6571
ltibia 23.1622
lfoot 19.8162 -6.65111
ltoes -41.3587
115
root -1.71914 18.8838 -8.18333 183.509 -56.0154 -192.555
lowerback 9.63597 -5.71707 -3.89308
upperback -0.910298 -8.08174 0.110106
thorax -5.77797 -3.85886 3.40961
lowerneck 1.69032 -15.9279 -9.54564
upperneck -6.41775 -21.3153 13.241
head 0.272259 -10.8116 4.9968
rclavicle 8.48811e-014 5.56597e-015
rhumerus -115.734 -151.006 152.155
rradius 45.4185
rwrist -135.075
rhand -12.7738 15.9715
rfingers 7.12502
rthumb 13.3112 -13.5834
lclavicle 8.48811e-014 5.56597e-015
lhumerus 107.243 -6.22553 65.5107
lradius 30.4628
lwrist 208.911
lhand -12.7515 27.7677
lfingers 7.12502
lthumb 13.3328 57.3211
rfemur -3.0294 7.67226 7.92594
rtibia 30.5539
rfoot 1.81337 -18.6278
rtoes -7.09169
lfemur 7.54299 -0.0431139 -13.7316
ltibia 23.2605
lfoot 20.4247 -6.39899
ltoes -41.3425
116
root -1.69134 18.9076 -8.23535 183.871 -55.9168 -193.018
lowerback 9.66105 -5.71213 -4.18723
upperback -0.875239 -8.10865 0.13884
thorax -5.70873 -3.86594 3.60119
lowerneck 1.5119 -15.8437 -9.62704
upperneck -6.19554 -21.1978 13.0809
head 0.342829 -10.7377 4.94417
rclavicle 3.61291e-014 -1.43125e-014
rhumerus -115.051 -151.201 152.5
rradius 44.3025
rwrist -136.227
rhand -16.4778 16.4756
rfingers 7.12502
rthumb 9.7392 -13.2792
lclavicle 3.61291e-014 -1.43125e-014
lhumerus 107.474 -7.45373 67.8489
lradius 28.2673
lwrist 208.806
lhand -12.324 24.5546
lfingers 7.12502
lthumb 13.7448 54.0806
rfemur -2.9105 8.50946 8.00619
rtibia 30.4911
rfoot 1.75149 -19.4352
rtoes -6.70033
lfemur 7.41281 0.324299 -13.8613
ltibia 23.2975
lfoot 20.9809 -6.18491
ltoes -41.2224
117
root -1.66401 18.9242 -8.2876 184.108 -55.8413 -193.43
lowerback 9.74035 -5.71348 -4.41906
upperback -0.808442 -8.14153 0.127246
thorax -5.65009 -3.87898 3.72262
lowerneck 1.3901 -15.7661 -9.65696
upperneck -6.009 -21.0905 12.9208
head 0.389945 -10.6726 4.89211
rclavicle -7.07673e-014 1.19271e-014
rhumerus -114.682 -151.436 152.913
rradius 43.5704
rwrist -137.276
rhand -19.5207 17.0741
rfingers 7.12502
rthumb 6.80252 -12.7966
lclavicle -7.07673e-014 1.19271e-014
lhumerus 107.481 -8.45891 69.6632
lradius 26.6328
lwrist 208.36
lhand -10.9495 21.6986
lfingers 7.12502
lthumb 15.0692 51.1301
rfemur -2.7321 9.28856 8.1266
rtibia 30.4966
rfoot 1.62843 -20.1991
rtoes -6.10117
lfemur 7.38792 0.690792 -13.9516
ltibia 23.3016
lfoot 21.5133 -6.10655
ltoes -40.9772
118
root -1.63604 18.9357 -8.33887 184.218 -55.7722 -193.758
lowerback 9.86584 -5.71712 -4.61834
upperback -0.723761 -8.1752 0.130909
thorax -5.60034 -3.89345 3.84664
lowerneck 1.30994 -15.6817 -9.70572
upperneck -5.83942 -20.9758 12.7666
head 0.42754 -10.6052 4.84909
rclavicle 5.33737e-014 -6.36111e-015
rhumerus -114.487 -151.724 153.265
rradius 43.1821
rwrist -138.038
rhand -21.7713 17.8056
rfingers 7.12502
rthumb 4.62962 -12.1238
lclavicle 5.33737e-014 -6.36111e-015
lhumerus 107.27 -9.49335 71.6659
lradius 25.3568
lwrist 207.408
lhand -9.68269 19.5149
lfingers 7.12502
lthumb 16.2892 48.8507
rfemur -2.53211 9.85992 8.26637
rtibia 30.5488
rfoot 1.45492 -20.7783
rtoes -5.51614
lfemur 7.43583 1.01981 -13.9962
ltibia 23.2973
lfoot 21.9374 -6.11283
ltoes -40.7299
119
root -1.60857 18.942 -8.38956 184.277 -55.7287 -194.059
lowerback 10.005 -5.734 -4.83211
upperback -0.623237 -8.22746 0.164191
thorax -5.53305 -3.91768 4.01172
lowerneck 1.27541 -15.5749 -9.85311
upperneck -5.73011 -20.8334 12.7075
head 0.458384 -10.5266 4.85227
rclavicle -8.05078e-014 3.02153e-014
rhumerus -114.479 -152.072 153.654
rradius 43.135
rwrist -138.629
rhand -22.5992 18.6091
rfingers 7.12502
rthumb 3.83014 -11.3362
lclavicle -8.05078e-014 3.02153e-014
lhumerus 106.911 -10.3339 73.5946
lradius 24.4659
lwrist 206.179
lhand -9.35009 18.6628
lfingers 7.12502
lthumb 16.6094 47.972
rfemur -2.30168 10.2852 8.40356
rtibia 30.6197
rfoot 1.25582 -21.1957
rtoes -5.05387
lfemur 7.51459 1.29685 -14.0409
ltibia 23.314
lfoot 22.2092 -6.20642
ltoes -40.5292
